<?xml version="1.0" encoding="iso-8859-1"?>
<svg version="1.1" xmlns="http://www.w3.org/2000/svg" xmlns:xlink="http://www.w3.org/1999/xlink" x="0px" y="0px"
	 viewBox="12 102 114 18" style="enable-background:new 12 102 114 18;" xml:space="preserve">
<g id="Layer_1">
	<g>
		<!-- IMAGIN' - fill #f0ebe3 -->
		<g>
			<rect x="14.104" y="103.789" style="fill:#f0ebe3;" width="2.582" height="14.753"/>
			<path style="fill:#f0ebe3;" d="M29.062,107.109l-2.213,6.952l-2.213-6.952c-0.774-2.397-1.752-3.319-3.522-3.319h-2.582v14.753
				h2.582v-12.171c0.571,0,0.737,0.516,1.457,2.785l2.987,9.386h2.582l2.987-9.386c0.719-2.269,0.885-2.785,1.457-2.785v12.171
				h2.581v-14.753h-2.581C30.814,103.789,29.837,104.711,29.062,107.109z"/>
			<path style="fill:#f0ebe3;" d="M41.631,103.789l-3.08,8.483c-0.166,0.479,0.037,0.608,0.461,0.332
				c0.793-0.48,1.77-0.83,2.508-0.922l1.402-3.855l1.66,4.574h-0.682c-3.873,0-5.846,1.235-7.155,4.868l-0.461,1.273h2.747
				l0.535-1.475c0.664-1.844,1.77-2.453,3.707-2.453h2.121l1.42,3.928h2.748l-5.348-14.753H41.631z"/>
			<path style="fill:#f0ebe3;" d="M56.354,112.309h3.688v3.209c-0.793,0.719-1.77,1.107-2.913,1.107
				c-2.711,0-4.611-2.25-4.611-5.459s1.899-5.459,4.611-5.459c1.309,0,2.434,0.535,3.245,1.439l1.716-1.844
				c-1.273-1.143-2.987-1.807-4.96-1.807c-4.334,0-7.377,3.172-7.377,7.671c0,4.499,3.043,7.671,7.377,7.671
				c2.268,0,4.186-0.866,5.495-2.342v-6.4h-6.27V112.309z"/>
			<rect x="64.476" y="103.789" style="fill:#f0ebe3;" width="2.582" height="14.753"/>
			<path style="fill:#f0ebe3;" d="M79.231,115.96c-1.051,0-1.531-0.332-1.826-1.493l-1.936-7.542
				c-0.59-2.306-1.807-3.43-3.559-3.43c-1.899,0-3.006,1.217-3.006,3.541v11.507h2.213v-11.507c0-0.996,0.313-1.328,0.7-1.328
				c0.405,0,0.756,0.296,1.07,1.513l2.029,7.948c0.553,2.176,2.176,3.375,4.315,3.375h2.213v-14.753h-2.213V115.96z"/>
			<path style="fill:#f0ebe3;" d="M84.679,103.494c-0.756,0-1.383,0.627-1.383,1.383c0,0.756,0.627,1.383,1.383,1.383
				c0.203,0-0.479,1.07-0.903,1.623h1.014c0.959-1.162,1.273-2.25,1.273-2.951C86.063,104.121,85.435,103.494,84.679,103.494z"/>
		</g>
		<!-- ART - fill #a78863 -->
		<g>
			<path style="fill:#a78863;" d="M92.519,103.789l-3.08,8.483c-0.166,0.479,0.037,0.608,0.461,0.332
				c0.793-0.48,1.77-0.83,2.508-0.922l1.402-3.855l1.66,4.574h-0.682c-3.872,0-5.846,1.235-7.155,4.868l-0.461,1.273h2.747
				l0.535-1.475c0.664-1.844,1.77-2.453,3.707-2.453h2.12l1.42,3.928h2.748l-5.349-14.753H92.519z"/>
			<path style="fill:#a78863;" d="M114.065,107.957c0-2.674-1.825-4.168-5.09-4.168h-7.413v2.213h7.413
				c1.494,0,2.324,0.7,2.324,1.954c0,1.273-0.83,1.973-2.324,1.973h-2.249c-3.32,0-5.164,1.716-5.164,4.795v3.817h2.582v-3.817
				c0-1.66,0.922-2.582,2.582-2.582h0.276l4.315,6.399h3.116l-4.371-6.454C112.664,111.775,114.065,110.336,114.065,107.957z"/>
			<path style="fill:#a78863;" d="M115.088,103.789v2.213h5.772c-0.517,0.737-0.793,1.696-0.793,2.913v9.626h2.582v-9.626
				c0-2.065,0.848-2.913,2.581-2.913h2.398v-2.213H115.088z"/>
		</g>
	</g>
</g>
</svg>
